<svg width="133" height="183" viewBox="0 0 133 183" fill="none" xmlns="http://www.w3.org/2000/svg">
<path d="M0 5C0 2.23858 2.23858 0 5 0H133V183H5C2.23857 183 0 180.761 0 178V5Z" fill="white"/>
<path d="M45.1797 70.9062V70.6562H44.9297H43.9531C43.0124 70.6562 42.25 69.8939 42.25 68.9531C42.25 68.0124 43.0124 67.25 43.9531 67.25H62.9961C63.9368 67.25 64.6992 68.0124 64.6992 68.9531C64.6992 69.8939 63.9368 70.6562 62.9961 70.6562H62.0195H61.7695V70.9062V75.7891C61.7695 76.7298 61.0071 77.4922 60.0664 77.4922C59.1257 77.4922 58.3633 76.7298 58.3633 75.7891V70.9062V70.6562H58.1133H48.8359H48.5859V70.9062V83.6016V83.8516H48.8359H60.0664C61.0071 83.8516 61.7695 84.614 61.7695 85.5547V108.455C61.7695 113.029 58.0481 116.75 53.4746 116.75C48.9011 116.75 45.1797 113.029 45.1797 108.455V70.9062ZM58.3633 87.5078V87.2578H58.1133H48.8359H48.5859V87.5078V108.455C48.5859 111.151 50.7788 113.344 53.4746 113.344C56.1704 113.344 58.3633 111.151 58.3633 108.455V87.5078ZM72.2305 70.9062V70.6562H71.9805H71.0039C70.0632 70.6562 69.3008 69.8939 69.3008 68.9531C69.3008 68.0124 70.0632 67.25 71.0039 67.25H90.0469C90.9876 67.25 91.75 68.0124 91.75 68.9531C91.75 69.8939 90.9876 70.6562 90.0469 70.6562H89.0703H88.8203V70.9062V81.6484C88.8203 82.5892 88.0579 83.3516 87.1172 83.3516C86.1765 83.3516 85.4141 82.5892 85.4141 81.6484V70.9062V70.6562H85.1641H75.8867H75.6367V70.9062V89.4609V89.7109H75.8867H87.1172C88.0579 89.7109 88.8203 90.4733 88.8203 91.4141V108.455C88.8203 113.029 85.0989 116.75 80.5254 116.75C75.9519 116.75 72.2305 113.029 72.2305 108.455V70.9062ZM85.4141 93.3672V93.1172H85.1641H75.8867H75.6367V93.3672V108.455C75.6367 111.151 77.8296 113.344 80.5254 113.344C83.2212 113.344 85.4141 111.151 85.4141 108.455V93.3672Z" fill="#EBE7FF" stroke="white" stroke-width="0.5"/>
</svg>
