<svg width="133" height="183" viewBox="0 0 133 183" fill="none" xmlns="http://www.w3.org/2000/svg">
<path d="M0 5C0 2.23858 2.23858 0 5 0H133V183H5C2.23857 183 0 180.761 0 178V5Z" fill="white"/>
<g clip-path="url(#clip0)">
<path d="M47.7796 108.221L47.7793 108.221L44.4071 111.581L44.4067 111.581C43.5401 112.448 43.2831 113.74 43.7522 114.873L43.7522 114.874C44.2217 116.009 45.3178 116.743 46.5469 116.744L55.3994 116.75H55.3995H55.4028C56.6342 116.75 57.7906 116.271 58.6615 115.4L58.6616 115.4C59.5336 114.528 60.0127 113.371 60.0119 112.138L60.007 103.284C60.0056 102.056 59.2716 100.96 58.1362 100.49L58.1362 100.49C57.0023 100.021 55.7102 100.278 54.8433 101.145L54.8433 101.145L54.8433 101.145L54.8432 101.145L54.8432 101.145L54.8432 101.145L54.8432 101.145L54.8431 101.145L54.8431 101.145L54.8431 101.145L54.843 101.145L54.843 101.145L54.843 101.145L54.8429 101.146L54.8429 101.146L54.8429 101.146L54.8429 101.146L54.8428 101.146L54.8428 101.146L54.8428 101.146L54.8427 101.146L54.8427 101.146L54.8427 101.146L54.8427 101.146L54.8426 101.146L54.8426 101.146L54.8426 101.146L54.8425 101.146L54.8425 101.146L54.8425 101.146L54.8425 101.146L54.8424 101.146L54.8424 101.146L54.8424 101.146L54.8423 101.146L54.8423 101.146L54.8423 101.146L54.8422 101.146L54.8422 101.146L54.8422 101.146L54.8422 101.146L54.8421 101.146L54.8421 101.146L54.8421 101.146L54.842 101.146L54.842 101.146L54.842 101.146L54.842 101.147L54.8419 101.147L54.8419 101.147L54.8419 101.147L54.8418 101.147L54.8418 101.147L54.8418 101.147L54.8417 101.147L54.8417 101.147L54.8417 101.147L54.8417 101.147L54.8416 101.147L54.8416 101.147L54.8416 101.147L54.8415 101.147L54.8415 101.147L54.8415 101.147L54.8415 101.147L54.8414 101.147L54.8414 101.147L54.8414 101.147L54.8413 101.147L54.8413 101.147L54.8413 101.147L54.8412 101.147L54.8412 101.147L54.8412 101.147L54.8412 101.147L54.8411 101.147L54.8411 101.147L54.8411 101.147L54.841 101.147L54.841 101.147L54.841 101.147L54.8409 101.148L54.8409 101.148L54.8409 101.148L54.8409 101.148L54.8408 101.148L54.8408 101.148L54.8408 101.148L54.8407 101.148L54.8407 101.148L54.8407 101.148L54.8407 101.148L54.8406 101.148L54.8406 101.148L54.8406 101.148L54.8405 101.148L54.8405 101.148L54.8405 101.148L54.8404 101.148L54.8404 101.148L54.8404 101.148L54.8404 101.148L54.8403 101.148L54.8403 101.148L54.8403 101.148L54.8402 101.148L54.8402 101.148L54.8402 101.148L54.8401 101.148L54.8401 101.148L54.8401 101.148L54.8401 101.148L54.84 101.148L54.84 101.148L54.84 101.148L54.8399 101.149L54.8399 101.149L54.8399 101.149L54.8398 101.149L54.8398 101.149L54.8398 101.149L54.8398 101.149L54.8397 101.149L54.8397 101.149L54.8397 101.149L54.8396 101.149L54.8396 101.149L54.8396 101.149L54.8395 101.149L54.8395 101.149L54.8395 101.149L54.8395 101.149L54.8394 101.149L54.8394 101.149L54.8394 101.149L54.8393 101.149L54.8393 101.149L54.8393 101.149L54.8392 101.149L54.8392 101.149L54.8392 101.149L54.8392 101.149L54.8391 101.149L54.8391 101.149L54.8391 101.149L54.839 101.149L54.839 101.149L54.839 101.149L54.8389 101.15L54.8389 101.15L54.8389 101.15L54.8389 101.15L54.8388 101.15L54.8388 101.15L54.8388 101.15L54.8387 101.15L54.8387 101.15L54.8387 101.15L54.8386 101.15L54.8386 101.15L54.8386 101.15L54.8386 101.15L54.8385 101.15L54.8385 101.15L54.8385 101.15L54.8384 101.15L54.8384 101.15L54.8384 101.15L54.8383 101.15L54.8383 101.15L54.8383 101.15L54.8383 101.15L54.8382 101.15L54.8382 101.15L54.8382 101.15L54.8381 101.15L54.8381 101.15L54.8381 101.15L54.838 101.15L54.838 101.15L54.838 101.15L54.838 101.15L54.8379 101.151L54.8379 101.151L54.8379 101.151L54.8378 101.151L54.8378 101.151L54.8378 101.151L54.8377 101.151L54.8377 101.151L54.8377 101.151L54.8377 101.151L54.8376 101.151L54.8376 101.151L54.8376 101.151L54.8375 101.151L54.8375 101.151L54.8375 101.151L54.8374 101.151L54.8374 101.151L54.8374 101.151L54.8374 101.151L54.8373 101.151L54.8373 101.151L54.8373 101.151L54.8372 101.151L54.8372 101.151L54.8372 101.151L54.8371 101.151L54.8371 101.151L54.8371 101.151L54.8371 101.151L54.837 101.151L54.837 101.151L54.837 101.151L54.8369 101.152L54.8369 101.152L54.8369 101.152L54.8368 101.152L54.8368 101.152L54.8368 101.152L54.8368 101.152L54.8367 101.152L54.8367 101.152L54.8367 101.152L54.8366 101.152L54.8366 101.152L54.8366 101.152L54.8365 101.152L54.8365 101.152L54.8365 101.152L54.8365 101.152L54.8364 101.152L54.8364 101.152L54.8364 101.152L54.8363 101.152L54.8363 101.152L54.8363 101.152L54.8362 101.152L54.8362 101.152L54.8362 101.152L54.8361 101.152L54.8361 101.152L54.8361 101.152L54.8361 101.152L54.836 101.152L54.836 101.152L54.836 101.152L54.8359 101.153L54.8359 101.153L54.8359 101.153L54.8358 101.153L54.8358 101.153L54.8358 101.153L54.8358 101.153L54.8357 101.153L54.8357 101.153L54.8357 101.153L54.8356 101.153L54.8356 101.153L54.8356 101.153L54.8355 101.153L54.8355 101.153L54.8355 101.153L54.8355 101.153L54.8354 101.153L54.8354 101.153L54.8354 101.153L54.8353 101.153L54.8353 101.153L54.8353 101.153L54.8352 101.153L54.8352 101.153L54.8352 101.153L54.8352 101.153L54.8351 101.153L54.8351 101.153L54.8351 101.153L54.835 101.153L54.835 101.153L54.835 101.153L54.8349 101.154L54.8349 101.154L54.8349 101.154L54.8349 101.154L54.8348 101.154L54.8348 101.154L54.8348 101.154L54.8347 101.154L54.8347 101.154L54.8347 101.154L54.8346 101.154L54.8346 101.154L54.8346 101.154L54.8346 101.154L54.8345 101.154L54.8345 101.154L54.8345 101.154L54.8344 101.154L54.8344 101.154L54.8344 101.154L54.8343 101.154L54.8343 101.154L54.8343 101.154L54.8342 101.154L54.8342 101.154L54.8342 101.154L54.8342 101.154L54.8341 101.154L54.8341 101.154L54.8341 101.154L54.834 101.154L54.834 101.154L54.834 101.154L54.8339 101.155L54.8339 101.155L54.8339 101.155L54.8339 101.155L54.8338 101.155L54.8338 101.155L54.8338 101.155L54.8337 101.155L54.8337 101.155L54.8337 101.155L54.8336 101.155L54.8336 101.155L54.8336 101.155L54.8336 101.155L54.8335 101.155L54.8335 101.155L54.8335 101.155L54.8334 101.155L54.8334 101.155L54.8334 101.155L54.8333 101.155L54.8333 101.155L54.8333 101.155L54.8333 101.155L54.8332 101.155L54.8332 101.155L54.8332 101.155L54.8331 101.155L54.8331 101.155L54.8331 101.155L54.833 101.155L54.833 101.155L54.833 101.155L54.833 101.156L54.8329 101.156L54.8329 101.156L54.8329 101.156L54.8328 101.156L54.8328 101.156L54.8328 101.156L54.8327 101.156L54.8327 101.156L54.8327 101.156L54.8327 101.156L54.8326 101.156L54.8326 101.156L54.8326 101.156L54.8325 101.156L54.8325 101.156L54.8325 101.156L54.8324 101.156L54.8324 101.156L54.8324 101.156L54.8324 101.156L54.8323 101.156L54.8323 101.156L54.8323 101.156L54.8322 101.156L54.8322 101.156L54.8322 101.156L54.8321 101.156L54.8321 101.156L54.8321 101.156L54.8321 101.156L54.832 101.156L54.832 101.156L54.832 101.156L54.8319 101.157L54.8319 101.157L54.8319 101.157L54.8318 101.157L54.8318 101.157L54.8318 101.157L54.8318 101.157L54.8317 101.157L54.8317 101.157L54.8317 101.157L54.8316 101.157L54.8316 101.157L54.8316 101.157L54.8315 101.157L54.8315 101.157L54.8315 101.157L54.8315 101.157L54.8314 101.157L54.8314 101.157L54.8314 101.157L54.8313 101.157L54.8313 101.157L54.8313 101.157L54.8312 101.157L54.8312 101.157L54.8312 101.157L54.8312 101.157L54.8311 101.157L54.8311 101.157L54.8311 101.157L54.831 101.157L54.831 101.157L54.831 101.157L54.831 101.158L54.8309 101.158L54.8309 101.158L54.8309 101.158L54.8308 101.158L54.8308 101.158L54.8308 101.158L54.8307 101.158L54.8307 101.158L54.8307 101.158L54.8307 101.158L54.8306 101.158L54.8306 101.158L54.8306 101.158L54.8305 101.158L54.8305 101.158L54.8305 101.158L54.8304 101.158L54.8304 101.158L54.8304 101.158L54.8304 101.158L54.8303 101.158L54.8303 101.158L54.8303 101.158L54.8302 101.158L54.8302 101.158L54.8302 101.158L54.8302 101.158L54.8301 101.158L54.8301 101.158L54.8301 101.158L54.83 101.158L54.83 101.158L54.83 101.158L54.8299 101.159L54.8299 101.159L54.8299 101.159L54.8299 101.159L54.8298 101.159L54.8298 101.159L54.8298 101.159L54.8297 101.159L54.8297 101.159L54.8297 101.159L54.8296 101.159L54.8296 101.159L54.8296 101.159L54.8296 101.159L54.8295 101.159L54.8295 101.159L54.8295 101.159L54.8294 101.159L54.8294 101.159L54.8294 101.159L54.8294 101.159L54.8293 101.159L54.8293 101.159L54.8293 101.159L54.8292 101.159L54.8292 101.159L54.8292 101.159L54.8291 101.159L54.8291 101.159L54.8291 101.159L54.8291 101.159L54.829 101.159L54.829 101.159L54.829 101.159L54.8289 101.16L54.8289 101.16L54.8289 101.16L54.8289 101.16L54.8288 101.16L54.8288 101.16L54.8288 101.16L54.8287 101.16L54.8287 101.16L54.8287 101.16L54.8287 101.16L54.8286 101.16L54.8286 101.16L54.8286 101.16L54.8285 101.16L54.8285 101.16L54.8285 101.16L54.8284 101.16L54.8284 101.16L54.8284 101.16L54.8284 101.16L54.8283 101.16L54.8283 101.16L54.8283 101.16L54.8282 101.16L54.8282 101.16L54.8282 101.16L54.8282 101.16L54.8281 101.16L54.8281 101.16L54.8281 101.16L54.0641 101.942L54.064 101.942C53.4061 102.614 53.418 103.692 54.0906 104.35L53.9158 104.529L54.0906 104.35C54.6728 104.92 55.5597 104.987 56.2144 104.558L56.6012 104.304L56.6015 104.767L56.6057 112.14V112.14C56.6057 112.574 56.3842 112.861 56.2529 112.992C56.122 113.123 55.836 113.344 55.4028 113.344H55.4027H55.4027H55.4027H55.4027H55.4026H55.4026H55.4026H55.4025H55.4025H55.4025H55.4025H55.4024H55.4024H55.4024H55.4023H55.4023H55.4023H55.4023H55.4022H55.4022H55.4022H55.4021H55.4021H55.4021H55.4021H55.402H55.4019L48.0734 113.339L47.4688 113.338L47.8972 112.912L50.1856 110.632C50.1857 110.632 50.1857 110.632 50.1857 110.632C51.5872 109.23 51.6974 107.011 50.4406 105.467L50.6344 105.309L50.4406 105.467C47.3088 101.621 45.6102 96.765 45.6572 91.7924C45.768 80.1298 55.3382 70.6562 67.0006 70.6562H67.0334H67.0338C78.7844 70.6744 88.344 80.249 88.344 92C88.344 96.2093 87.0922 100.306 84.7252 103.847L84.7251 103.847C84.2023 104.628 84.4124 105.686 85.1941 106.209C85.9759 106.732 87.034 106.522 87.5565 105.74L87.5566 105.74C90.3004 101.636 91.7503 96.8847 91.7503 92C91.7503 85.3955 89.1806 79.1854 84.514 74.5119C79.8478 69.8389 73.6426 67.2602 67.0393 67.25H67.0393H67.0392H67.0391H67.0391H67.039H67.0389H67.0388H67.0387H67.0387H67.0386H67.0385H67.0384H67.0384H67.0383H67.0382H67.0381H67.038H67.038H67.0379H67.0378H67.0377H67.0377H67.0376H67.0375H67.0374H67.0373H67.0373H67.0372H67.0371H67.037H67.037H67.0369H67.0368H67.0367H67.0366H67.0366H67.0365H67.0364H67.0363H67.0363H67.0362H67.0361H67.036H67.036H67.0359H67.0358H67.0357H67.0356H67.0356H67.0355H67.0354H67.0353H67.0353H67.0352H67.0351H67.035H67.035H67.0349H67.0348H67.0347H67.0346H67.0346H67.0345H67.0344H67.0343H67.0343H67.0342H67.0341H67.034H67.034H67.0339H67.0338H67.0337H67.0337H67.0336H67.0335H67.0334H67.0333H67.0333H67.0332H67.0331H67.033H67.033H67.0329H67.0328H67.0327H67.0327H67.0326H67.0325H67.0324H67.0324H67.0323H67.0322H67.0321H67.032H67.032H67.0319H67.0318H67.0317H67.0317H67.0316H67.0315H67.0314H67.0314H67.0313H67.0312H67.0311H67.0311H67.031H67.0309H67.0308H67.0308H67.0307H67.0306H67.0305H67.0305H67.0304H67.0303H67.0302H67.0301H67.0301H67.03H67.0299H67.0298H67.0298H67.0297H67.0296H67.0295H67.0295H67.0294H67.0293H67.0292H67.0292H67.0291H67.029H67.0289H67.0289H67.0288H67.0287H67.0286H67.0286H67.0285H67.0284H67.0283H67.0283H67.0282H67.0281H67.028H67.028H67.0279H67.0278H67.0277H67.0277H67.0276H67.0275H67.0274H67.0274H67.0273H67.0272H67.0271H67.0271H67.027H67.0269H67.0268H67.0267H67.0267H67.0266H67.0265H67.0264H67.0264H67.0263H67.0262H67.0261H67.0261H67.026H67.0259H67.0258H67.0258H67.0257H67.0256H67.0255H67.0255H67.0254H67.0253H67.0252H67.0252H67.0251H67.025H67.0249H67.0249H67.0248H67.0247H67.0246H67.0246H67.0245H67.0244H67.0243H67.0243H67.0242H67.0241H67.024H67.024H67.0239H67.0238H67.0237H67.0237H67.0236H67.0235H67.0234H67.0234H67.0233H67.0232H67.0231H67.0231H67.023H67.0229H67.0228H67.0228H67.0227H67.0226H67.0225H67.0225H67.0224H67.0223H67.0222H67.0222H67.0221H67.022H67.0219H67.0219H67.0218H67.0217H67.0216H67.0216H67.0215H67.0214H67.0213H67.0213H67.0212H67.0211H67.021H67.021H67.0209H67.0208H67.0207H67.0207H67.0206H67.0205H67.0204H67.0204H67.0203H67.0202H67.0201H67.0201H67.02H67.0199H67.0198H67.0198H67.0197H67.0196H67.0195H67.0195H67.0194H67.0193H67.0192H67.0192H67.0191H67.019H67.0189H67.0189H67.0188H67.0187H67.0187H67.0186H67.0185H67.0184H67.0184H67.0183H67.0182H67.0181H67.0181H67.018H67.0179H67.0178H67.0178H67.0177H67.0176H67.0175H67.0175H67.0174H67.0173H67.0172H67.0172H67.0171H67.017H67.0169H67.0169H67.0168H67.0167H67.0166H67.0166H67.0165H67.0164H67.0163H67.0163H67.0162H67.0161H67.016H67.016H67.0159H67.0158H67.0157H67.0157H67.0156H67.0155H67.0154H67.0154H67.0153H67.0152H67.0151H67.0151H67.015H67.0149H67.0148H67.0147H67.0147H67.0146H67.0145H67.0145H67.0144H67.0143H67.0142H67.0141H67.0141H67.014H67.0139H67.0138H67.0138H67.0137H67.0136H67.0135H67.0135H67.0134H67.0133H67.0132H67.0132H67.0131H67.013H67.0129H67.0129H67.0128H67.0127H67.0126H67.0126H67.0125H67.0124H67.0123H67.0123H67.0122H67.0121H67.012H67.012H67.0119H67.0118H67.0117H67.0117H67.0116H67.0115H67.0114H67.0114H67.0113H67.0112H67.0111H67.0111H67.011H67.0109H67.0108H67.0108H67.0107H67.0106H67.0105H67.0105H67.0104H67.0103H67.0102H67.0101H67.0101H67.01H67.0099H67.0098H67.0098H67.0097H67.0096H67.0095H67.0095H67.0094H67.0093H67.0092H67.0092H67.0091H67.009H67.0089H67.0089H67.0088H67.0087H67.0086H67.0086H67.0085H67.0084H67.0083H67.0083H67.0082H67.0081H67.008H67.0079H67.0079H67.0078H67.0077H67.0076H67.0076H67.0075H67.0074H67.0073H67.0073H67.0072H67.0071H67.007H67.007H67.0069H67.0068H67.0067H67.0066H67.0066H67.0065H67.0064H67.0063H67.0063H67.0062H67.0061H67.006H67.006H67.0059H67.0058H67.0057H67.0057H67.0056H67.0055H67.0054H67.0053H67.0053H67.0052H67.0051H67.005H67.005H67.0049H67.0048H67.0047H67.0047H67.0046H67.0045H67.0044H67.0043H67.0043H67.0042H67.0041H67.004H67.004H67.0039H67.0038H67.0037H67.0037H67.0036H67.0035H67.0034H67.0033H67.0033H67.0032H67.0031H67.003H67.003H67.0029H67.0028H67.0027H67.0026H67.0026H67.0025H67.0024H67.0023H67.0023H67.0022H67.0021H67.002H67.0019H67.0019H67.0018H67.0017H67.0016H67.0016H67.0015H67.0014H67.0013H67.0012H67.0012H67.0011H67.001H67.0009H67.0009H67.0008H67.0007H67.0006C53.4791 67.25 42.3794 78.2381 42.2514 91.7601L42.0014 91.7578L42.2514 91.7601C42.1966 97.5257 44.1673 103.157 47.7992 107.618L47.7796 108.221ZM47.7796 108.221C47.9502 108.05 47.9374 107.787 47.7994 107.618L47.7796 108.221ZM65.1723 88.8339L65.2971 88.7617V88.6175V76.7656C65.2971 75.8249 66.0595 75.0625 67.0002 75.0625C67.941 75.0625 68.7034 75.8249 68.7034 76.7656V88.6175V88.7617L68.8281 88.8339C69.9215 89.4667 70.6565 90.6472 70.6565 92C70.6565 92.3273 70.6126 92.6444 70.5318 92.9468L70.4946 93.0861L70.5966 93.1881L75.7727 98.3642L75.7728 98.3643C76.438 99.0292 76.438 100.108 75.7728 100.772L75.7727 100.773C75.4404 101.105 75.0048 101.271 74.5686 101.271C74.1321 101.271 73.6968 101.105 73.3645 100.773L73.3644 100.772L68.1883 95.5967L68.0863 95.4948L67.947 95.532C67.6448 95.6127 67.3278 95.6562 67.0002 95.6562C64.9811 95.6562 63.344 94.0191 63.344 92C63.344 90.6472 64.079 89.4667 65.1723 88.8339ZM78.0417 110.27L78.0417 110.27C78.846 109.783 79.8932 110.04 80.3809 110.844C80.8682 111.649 80.611 112.696 79.8064 113.183L79.8064 113.183C75.9546 115.517 71.5263 116.75 67.0002 116.75C66.0595 116.75 65.2971 115.988 65.2971 115.047C65.2971 114.106 66.0595 113.344 67.0002 113.344C70.9034 113.344 74.7214 112.281 78.0417 110.27Z" fill="#EBE7FF" stroke="white" stroke-width="0.5"/>
</g>
<defs>
<clipPath id="clip0">
<rect width="50" height="50" fill="white" transform="translate(42 67)"/>
</clipPath>
</defs>
</svg>
