<svg width="133" height="183" viewBox="0 0 133 183" fill="none" xmlns="http://www.w3.org/2000/svg">
<path d="M0 5C0 2.23858 2.23858 0 5 0H133V183H5C2.23857 183 0 180.761 0 178V5Z" fill="white"/>
<g clip-path="url(#clip0)">
<path d="M78.1328 105.52H77.8828V105.77V107.723C77.8828 108.663 77.1204 109.426 76.1797 109.426C75.239 109.426 74.4766 108.663 74.4766 107.723V105.77V105.52H74.2266H72.2734C71.3327 105.52 70.5703 104.757 70.5703 103.816C70.5703 102.876 71.3327 102.113 72.2734 102.113H74.2266H74.4766V101.863V99.9102C74.4766 98.9694 75.239 98.207 76.1797 98.207C77.1204 98.207 77.8828 98.9694 77.8828 99.9102V101.863V102.113H78.1328H80.0859C81.0267 102.113 81.7891 102.876 81.7891 103.816C81.7891 104.757 81.0267 105.52 80.0859 105.52H78.1328ZM47.0279 75.9445L47.0279 75.9445L53.4774 69.4373C53.4775 69.4373 53.4775 69.4373 53.4775 69.4373C54.8549 68.0477 56.7685 67.25 58.7255 67.25H76.462C80.6315 67.25 84.0245 70.6426 84.0245 74.8125V85.1641C84.0245 86.1048 83.2617 86.8672 82.3214 86.8672C81.3806 86.8672 80.6182 86.1048 80.6182 85.1641V74.8125C80.6182 72.5207 78.7538 70.6562 76.462 70.6562H58.7255C57.6701 70.6562 56.6395 71.0857 55.8968 71.8354C55.8968 71.8354 55.8967 71.8354 55.8967 71.8354L49.4473 78.3421C49.1109 78.6813 48.8434 79.0712 48.6508 79.494L48.4896 79.8477H48.8783H54.3047C56.0583 79.8477 57.4844 78.4212 57.4844 76.668C57.4844 75.7272 58.2468 74.9648 59.1875 74.9648C60.1282 74.9648 60.8906 75.7272 60.8906 76.668C60.8906 80.2992 57.9359 83.2539 54.3047 83.2539H48.543H48.293V83.5039V109.188C48.293 111.479 50.1574 113.344 52.4492 113.344H60.2617C61.2024 113.344 61.9648 114.106 61.9648 115.047C61.9648 115.988 61.2024 116.75 60.2617 116.75H52.4492C48.2794 116.75 44.8867 113.357 44.8867 109.188V81.146C44.8867 79.1841 45.6469 77.3377 47.0279 75.9445ZM63.2461 103.816C63.2461 96.6852 69.0485 90.8828 76.1797 90.8828C83.3109 90.8828 89.1133 96.6852 89.1133 103.816C89.1133 110.948 83.3109 116.75 76.1797 116.75C69.0485 116.75 63.2461 110.948 63.2461 103.816ZM66.6523 103.816C66.6523 109.07 70.9261 113.344 76.1797 113.344C81.4333 113.344 85.707 109.07 85.707 103.816C85.707 98.5628 81.4333 94.2891 76.1797 94.2891C70.9261 94.2891 66.6523 98.5628 66.6523 103.816Z" fill="#EBE7FF" stroke="white" stroke-width="0.5"/>
</g>
<defs>
<clipPath id="clip0">
<rect width="50" height="50" fill="white" transform="translate(42 67)"/>
</clipPath>
</defs>
</svg>
